<svg xmlns="http://www.w3.org/2000/svg" viewBox="0 0 398 398"><defs><style>.cls-1{fill:#f15a24;}.cls-2{fill:none;stroke:#fff;}.cls-3{fill:#fff;}</style></defs><title>Asset 13</title><g id="Layer_2" data-name="Layer 2"><g id="Layer_1-2" data-name="Layer 1"><circle class="cls-1" cx="199" cy="199" r="198.5"/><circle class="cls-2" cx="199" cy="199" r="198.5"/><path class="cls-3" d="M236.22,122.07c-18.47,0-31.41,11.72-37.66,19-6.24-7.27-19.18-19-37.65-19-25,0-51.91,17.08-51.91,54.59,0,37.9,18.93,57.45,37.45,71.57a181.21,181.21,0,0,0,50.15,26.44,5,5,0,0,0,1.93.39h.25a5.17,5.17,0,0,0,1.65-.34,181.5,181.5,0,0,0,50.25-26.48c18.52-14.12,37.45-33.67,37.45-71.57C288.13,139.15,261.22,122.07,236.22,122.07Z"/></g></g></svg>